<svg version="1" xmlns="http://www.w3.org/2000/svg" width="666.667" height="666.667" viewBox="0 0 500.000000 500.000000"><path d="M385.5 13.2c2.2 2.5 26.5 28.7 54 58.2l50 53.6.3-8.8c2-54.8-43.1-103.9-98.3-107l-9.9-.5 3.9 4.5zM234.1 38.2c1.6 6.2 2.9 11.6 2.9 12 0 .5-23.8.8-53 .8h-53v231h-22v20h31c22.3 0 31 .3 31 1.1 0 .6-3.3 14-7.4 29.8-21.8 83.8-35.7 137.3-36.2 138.6-.5 1.3 1 1.5 10 1.5 5.8 0 10.6-.2 10.6-.5 0-.4 10.8-42.7 33-128.5l10.7-41.5 25.1-.3 25.2-.2v164h16V302h42.9l1 3.7c.6 2.1 10.5 40.4 22 85.2 11.6 44.7 21.2 81.5 21.4 81.8.3.2 4.9.2 10.4.1l9.9-.3-22-85-22.1-85 34.7-.3 34.8-.2v-20h-21.6l.4-115.5.4-115.5h-107l2.9-11.3c1.6-6.1 2.9-11.5 2.9-12 0-.4-8.5-.7-18.9-.7h-18.9l2.9 11.2zM334.5 170v84.5h-169l-.3-83.5c-.1-45.9 0-84.1.3-84.8.3-1 17.8-1.2 84.7-1l84.3.3V170z"/><path d="M177 170v73h49V97h-49v73zM275 170v73h48V97h-48v73z"/></svg>